<svg xmlns="http://www.w3.org/2000/svg" xmlns:xlink="http://www.w3.org/1999/xlink" width="500" zoomAndPan="magnify" viewBox="0 0 375 374.999991" height="500" preserveAspectRatio="xMidYMid meet" version="1.0"><defs><g><g id="id1"/></g><clipPath id="id2"><path d="M 60.484375 170 L 91.984375 170 L 91.984375 195.140625 L 60.484375 195.140625 Z M 60.484375 170 " clip-rule="nonzero"/></clipPath><clipPath id="id3"><path d="M 67 167.390625 L 69 167.390625 L 69 174 L 67 174 Z M 67 167.390625 " clip-rule="nonzero"/></clipPath><clipPath id="id4"><path d="M 84 167.390625 L 85 167.390625 L 85 174 L 84 174 Z M 84 167.390625 " clip-rule="nonzero"/></clipPath><clipPath id="id5"><path d="M 60.484375 174 L 91.984375 174 L 91.984375 176 L 60.484375 176 Z M 60.484375 174 " clip-rule="nonzero"/></clipPath></defs><g clip-path="url(#id2)"><path fill="rgb(100%, 39.99939%, 76.858521%)" d="M 89.1875 195.140625 L 63.28125 195.140625 C 61.738281 195.140625 60.484375 193.75 60.484375 192.046875 L 60.484375 173.320312 C 60.484375 171.617188 61.738281 170.230469 63.28125 170.230469 L 66.691406 170.230469 C 66.9375 170.230469 67.136719 170.425781 67.136719 170.667969 C 67.136719 170.914062 66.9375 171.109375 66.691406 171.109375 L 63.28125 171.109375 C 62.230469 171.109375 61.371094 172.101562 61.371094 173.320312 L 61.371094 192.046875 C 61.371094 193.265625 62.230469 194.257812 63.28125 194.257812 L 89.1875 194.257812 C 90.242188 194.257812 91.097656 193.265625 91.097656 192.046875 L 91.097656 173.320312 C 91.097656 172.101562 90.242188 171.109375 89.1875 171.109375 L 85.863281 171.109375 C 85.617188 171.109375 85.421875 170.914062 85.421875 170.667969 C 85.421875 170.425781 85.617188 170.230469 85.863281 170.230469 L 89.1875 170.230469 C 90.730469 170.230469 91.984375 171.617188 91.984375 173.320312 L 91.984375 192.046875 C 91.984375 193.75 90.730469 195.140625 89.1875 195.140625 " fill-opacity="1" fill-rule="nonzero"/></g><path fill="rgb(100%, 39.99939%, 76.858521%)" d="M 83.164062 171.109375 L 69.265625 171.109375 C 69.023438 171.109375 68.824219 170.914062 68.824219 170.667969 C 68.824219 170.425781 69.023438 170.230469 69.265625 170.230469 L 83.164062 170.230469 C 83.410156 170.230469 83.609375 170.425781 83.609375 170.667969 C 83.609375 170.914062 83.410156 171.109375 83.164062 171.109375 " fill-opacity="1" fill-rule="nonzero"/><g clip-path="url(#id3)"><path fill="rgb(100%, 39.99939%, 76.858521%)" d="M 67.960938 173.578125 C 67.714844 173.578125 67.519531 173.382812 67.519531 173.140625 L 67.519531 167.835938 C 67.519531 167.589844 67.714844 167.394531 67.960938 167.394531 C 68.207031 167.394531 68.40625 167.589844 68.40625 167.835938 L 68.40625 173.140625 C 68.40625 173.382812 68.207031 173.578125 67.960938 173.578125 " fill-opacity="1" fill-rule="nonzero"/></g><g clip-path="url(#id4)"><path fill="rgb(100%, 39.99939%, 76.858521%)" d="M 84.507812 173.578125 C 84.265625 173.578125 84.066406 173.382812 84.066406 173.140625 L 84.066406 167.835938 C 84.066406 167.589844 84.265625 167.394531 84.507812 167.394531 C 84.753906 167.394531 84.953125 167.589844 84.953125 167.835938 L 84.953125 173.140625 C 84.953125 173.382812 84.753906 173.578125 84.507812 173.578125 " fill-opacity="1" fill-rule="nonzero"/></g><g clip-path="url(#id5)"><path fill="rgb(100%, 39.99939%, 76.858521%)" d="M 91.542969 175.125 L 60.929688 175.125 C 60.683594 175.125 60.484375 174.929688 60.484375 174.683594 C 60.484375 174.441406 60.683594 174.246094 60.929688 174.246094 L 91.542969 174.246094 C 91.789062 174.246094 91.984375 174.441406 91.984375 174.683594 C 91.984375 174.929688 91.789062 175.125 91.542969 175.125 " fill-opacity="1" fill-rule="nonzero"/></g><path fill="rgb(100%, 39.99939%, 76.858521%)" d="M 85.066406 177.914062 C 84.734375 177.914062 84.503906 178.113281 84.503906 178.289062 L 84.503906 179.914062 C 84.503906 180.089844 84.734375 180.285156 85.066406 180.285156 L 87.414062 180.285156 C 87.746094 180.285156 87.976562 180.089844 87.976562 179.914062 L 87.976562 178.289062 C 87.976562 178.113281 87.746094 177.914062 87.414062 177.914062 Z M 87.414062 181.167969 L 85.066406 181.167969 C 84.269531 181.167969 83.617188 180.605469 83.617188 179.914062 L 83.617188 178.289062 C 83.617188 177.597656 84.269531 177.035156 85.066406 177.035156 L 87.414062 177.035156 C 88.210938 177.035156 88.863281 177.597656 88.863281 178.289062 L 88.863281 179.914062 C 88.863281 180.605469 88.210938 181.167969 87.414062 181.167969 " fill-opacity="1" fill-rule="nonzero"/><path fill="rgb(100%, 39.99939%, 76.858521%)" d="M 78.394531 177.914062 C 78.066406 177.914062 77.835938 178.113281 77.835938 178.289062 L 77.835938 179.914062 C 77.835938 180.089844 78.066406 180.285156 78.394531 180.285156 L 80.746094 180.285156 C 81.074219 180.285156 81.304688 180.089844 81.304688 179.914062 L 81.304688 178.289062 C 81.304688 178.113281 81.074219 177.914062 80.746094 177.914062 Z M 80.746094 181.167969 L 78.394531 181.167969 C 77.597656 181.167969 76.949219 180.605469 76.949219 179.914062 L 76.949219 178.289062 C 76.949219 177.597656 77.597656 177.035156 78.394531 177.035156 L 80.746094 177.035156 C 81.542969 177.035156 82.191406 177.597656 82.191406 178.289062 L 82.191406 179.914062 C 82.191406 180.605469 81.542969 181.167969 80.746094 181.167969 " fill-opacity="1" fill-rule="nonzero"/><path fill="rgb(100%, 39.99939%, 76.858521%)" d="M 71.726562 177.914062 C 71.394531 177.914062 71.164062 178.113281 71.164062 178.289062 L 71.164062 179.914062 C 71.164062 180.089844 71.394531 180.285156 71.726562 180.285156 L 74.074219 180.285156 C 74.40625 180.285156 74.636719 180.089844 74.636719 179.914062 L 74.636719 178.289062 C 74.636719 178.113281 74.40625 177.914062 74.074219 177.914062 Z M 74.074219 181.167969 L 71.726562 181.167969 C 70.925781 181.167969 70.277344 180.605469 70.277344 179.914062 L 70.277344 178.289062 C 70.277344 177.597656 70.925781 177.035156 71.726562 177.035156 L 74.074219 177.035156 C 74.871094 177.035156 75.523438 177.597656 75.523438 178.289062 L 75.523438 179.914062 C 75.523438 180.605469 74.871094 181.167969 74.074219 181.167969 " fill-opacity="1" fill-rule="nonzero"/><path fill="rgb(100%, 39.99939%, 76.858521%)" d="M 85.066406 183.125 C 84.734375 183.125 84.503906 183.320312 84.503906 183.496094 L 84.503906 185.121094 C 84.503906 185.300781 84.734375 185.496094 85.066406 185.496094 L 87.414062 185.496094 C 87.746094 185.496094 87.976562 185.300781 87.976562 185.121094 L 87.976562 183.496094 C 87.976562 183.320312 87.746094 183.125 87.414062 183.125 Z M 87.414062 186.375 L 85.066406 186.375 C 84.269531 186.375 83.617188 185.8125 83.617188 185.121094 L 83.617188 183.496094 C 83.617188 182.804688 84.269531 182.242188 85.066406 182.242188 L 87.414062 182.242188 C 88.210938 182.242188 88.863281 182.804688 88.863281 183.496094 L 88.863281 185.121094 C 88.863281 185.8125 88.210938 186.375 87.414062 186.375 " fill-opacity="1" fill-rule="nonzero"/><path fill="rgb(100%, 39.99939%, 76.858521%)" d="M 78.398438 183.125 C 78.066406 183.125 77.835938 183.320312 77.835938 183.496094 L 77.835938 185.121094 C 77.835938 185.300781 78.066406 185.496094 78.398438 185.496094 L 80.742188 185.496094 C 81.074219 185.496094 81.304688 185.300781 81.304688 185.121094 L 81.304688 183.496094 C 81.304688 183.320312 81.074219 183.125 80.742188 183.125 Z M 80.742188 186.375 L 78.398438 186.375 C 77.597656 186.375 76.949219 185.8125 76.949219 185.121094 L 76.949219 183.496094 C 76.949219 182.804688 77.597656 182.242188 78.398438 182.242188 L 80.742188 182.242188 C 81.542969 182.242188 82.191406 182.804688 82.191406 183.496094 L 82.191406 185.121094 C 82.191406 185.8125 81.542969 186.375 80.742188 186.375 " fill-opacity="1" fill-rule="nonzero"/><path fill="rgb(100%, 39.99939%, 76.858521%)" d="M 71.726562 183.125 C 71.394531 183.125 71.164062 183.320312 71.164062 183.496094 L 71.164062 185.121094 C 71.164062 185.300781 71.394531 185.496094 71.726562 185.496094 L 74.074219 185.496094 C 74.40625 185.496094 74.636719 185.300781 74.636719 185.121094 L 74.636719 183.496094 C 74.636719 183.320312 74.40625 183.125 74.074219 183.125 Z M 74.074219 186.375 L 71.726562 186.375 C 70.929688 186.375 70.277344 185.8125 70.277344 185.121094 L 70.277344 183.496094 C 70.277344 182.804688 70.929688 182.242188 71.726562 182.242188 L 74.074219 182.242188 C 74.871094 182.242188 75.523438 182.804688 75.523438 183.496094 L 75.523438 185.121094 C 75.523438 185.8125 74.871094 186.375 74.074219 186.375 " fill-opacity="1" fill-rule="nonzero"/><path fill="rgb(100%, 39.99939%, 76.858521%)" d="M 65.054688 183.125 C 64.726562 183.125 64.492188 183.320312 64.492188 183.496094 L 64.492188 185.121094 C 64.492188 185.300781 64.726562 185.496094 65.054688 185.496094 L 67.402344 185.496094 C 67.734375 185.496094 67.964844 185.300781 67.964844 185.121094 L 67.964844 183.496094 C 67.964844 183.320312 67.734375 183.125 67.402344 183.125 Z M 67.402344 186.375 L 65.054688 186.375 C 64.257812 186.375 63.605469 185.8125 63.605469 185.121094 L 63.605469 183.496094 C 63.605469 182.804688 64.257812 182.242188 65.054688 182.242188 L 67.402344 182.242188 C 68.203125 182.242188 68.851562 182.804688 68.851562 183.496094 L 68.851562 185.121094 C 68.851562 185.8125 68.203125 186.375 67.402344 186.375 " fill-opacity="1" fill-rule="nonzero"/><path fill="rgb(100%, 39.99939%, 76.858521%)" d="M 85.066406 188.332031 C 84.734375 188.332031 84.503906 188.527344 84.503906 188.707031 L 84.503906 190.332031 C 84.503906 190.507812 84.734375 190.703125 85.066406 190.703125 L 87.414062 190.703125 C 87.746094 190.703125 87.976562 190.507812 87.976562 190.332031 L 87.976562 188.707031 C 87.976562 188.527344 87.746094 188.332031 87.414062 188.332031 Z M 87.414062 191.582031 L 85.066406 191.582031 C 84.269531 191.582031 83.617188 191.023438 83.617188 190.332031 L 83.617188 188.707031 C 83.617188 188.015625 84.269531 187.453125 85.066406 187.453125 L 87.414062 187.453125 C 88.210938 187.453125 88.863281 188.015625 88.863281 188.707031 L 88.863281 190.332031 C 88.863281 191.023438 88.210938 191.582031 87.414062 191.582031 " fill-opacity="1" fill-rule="nonzero"/><path fill="rgb(100%, 39.99939%, 76.858521%)" d="M 78.398438 188.332031 C 78.066406 188.332031 77.835938 188.527344 77.835938 188.707031 L 77.835938 190.332031 C 77.835938 190.507812 78.066406 190.703125 78.398438 190.703125 L 80.742188 190.703125 C 81.074219 190.703125 81.304688 190.507812 81.304688 190.332031 L 81.304688 188.707031 C 81.304688 188.527344 81.074219 188.332031 80.742188 188.332031 Z M 80.742188 191.585938 L 78.398438 191.585938 C 77.597656 191.585938 76.949219 191.023438 76.949219 190.332031 L 76.949219 188.707031 C 76.949219 188.015625 77.597656 187.453125 78.398438 187.453125 L 80.742188 187.453125 C 81.542969 187.453125 82.191406 188.015625 82.191406 188.707031 L 82.191406 190.332031 C 82.191406 191.023438 81.542969 191.585938 80.742188 191.585938 " fill-opacity="1" fill-rule="nonzero"/><path fill="rgb(100%, 39.99939%, 76.858521%)" d="M 71.726562 188.332031 C 71.394531 188.332031 71.164062 188.527344 71.164062 188.707031 L 71.164062 190.332031 C 71.164062 190.507812 71.394531 190.703125 71.726562 190.703125 L 74.074219 190.703125 C 74.40625 190.703125 74.636719 190.507812 74.636719 190.332031 L 74.636719 188.707031 C 74.636719 188.527344 74.40625 188.332031 74.074219 188.332031 Z M 74.074219 191.585938 L 71.726562 191.585938 C 70.929688 191.585938 70.277344 191.023438 70.277344 190.332031 L 70.277344 188.707031 C 70.277344 188.015625 70.929688 187.453125 71.726562 187.453125 L 74.074219 187.453125 C 74.871094 187.453125 75.523438 188.015625 75.523438 188.707031 L 75.523438 190.332031 C 75.523438 191.023438 74.871094 191.585938 74.074219 191.585938 " fill-opacity="1" fill-rule="nonzero"/><path fill="rgb(100%, 39.99939%, 76.858521%)" d="M 65.054688 188.332031 C 64.726562 188.332031 64.492188 188.527344 64.492188 188.707031 L 64.492188 190.332031 C 64.492188 190.507812 64.726562 190.703125 65.054688 190.703125 L 67.402344 190.703125 C 67.734375 190.703125 67.964844 190.507812 67.964844 190.332031 L 67.964844 188.707031 C 67.964844 188.527344 67.734375 188.332031 67.402344 188.332031 Z M 67.402344 191.585938 L 65.054688 191.585938 C 64.257812 191.585938 63.605469 191.023438 63.605469 190.332031 L 63.605469 188.707031 C 63.605469 188.015625 64.257812 187.453125 65.054688 187.453125 L 67.402344 187.453125 C 68.203125 187.453125 68.851562 188.015625 68.851562 188.707031 L 68.851562 190.332031 C 68.851562 191.023438 68.203125 191.585938 67.402344 191.585938 " fill-opacity="1" fill-rule="nonzero"/><g fill="rgb(0%, 0%, 0%)" fill-opacity="1"><g transform="translate(97.845212, 195.749987)"><g><path d="M 19.140625 -6.3125 C 19.140625 -4.226562 18.316406 -2.546875 16.671875 -1.265625 C 15.035156 0.00390625 12.90625 0.640625 10.28125 0.640625 C 8.90625 0.640625 7.414062 0.457031 5.8125 0.09375 C 4.21875 -0.257812 2.867188 -0.765625 1.765625 -1.421875 L 1.796875 -1.5 L 1.765625 -2.515625 C 1.765625 -4.640625 1.96875 -6.457031 2.375 -7.96875 L 5.125 -7.96875 L 7.328125 -3.046875 C 8.617188 -2.597656 9.929688 -2.351562 11.265625 -2.3125 C 12.484375 -2.875 13.09375 -3.71875 13.09375 -4.84375 C 13.09375 -5.976562 12.328125 -6.953125 10.796875 -7.765625 L 6.65625 -9.78125 L 5.328125 -10.515625 C 2.929688 -11.960938 1.734375 -13.851562 1.734375 -16.1875 C 1.734375 -18.25 2.582031 -19.921875 4.28125 -21.203125 C 5.976562 -22.492188 8.171875 -23.140625 10.859375 -23.140625 C 13.390625 -23.140625 15.8125 -22.710938 18.125 -21.859375 C 18.03125 -19.117188 17.789062 -16.957031 17.40625 -15.375 L 14.28125 -15.375 L 12.96875 -19.515625 C 11.832031 -19.960938 10.519531 -20.210938 9.03125 -20.265625 C 8.007812 -19.648438 7.5 -18.800781 7.5 -17.71875 C 7.5 -16.96875 7.851562 -16.335938 8.5625 -15.828125 C 9.28125 -15.316406 10.445312 -14.707031 12.0625 -14 C 13.675781 -13.289062 14.960938 -12.617188 15.921875 -11.984375 C 16.890625 -11.347656 17.664062 -10.570312 18.25 -9.65625 C 18.84375 -8.738281 19.140625 -7.625 19.140625 -6.3125 Z M 19.140625 -6.3125 "/></g></g></g><g fill="rgb(0%, 0%, 0%)" fill-opacity="1"><g transform="translate(118.207683, 195.749987)"><g><path d="M 19.984375 -2.4375 L 12.859375 0.578125 C 9.898438 0.691406 7.476562 0.195312 5.59375 -0.90625 C 3.71875 -2.019531 2.367188 -3.46875 1.546875 -5.25 C 0.722656 -7.039062 0.3125 -8.929688 0.3125 -10.921875 C 0.3125 -13.054688 0.753906 -15.050781 1.640625 -16.90625 C 2.535156 -18.757812 3.875 -20.257812 5.65625 -21.40625 C 7.445312 -22.5625 9.625 -23.140625 12.1875 -23.140625 C 14.925781 -23.140625 17.3125 -22.40625 19.34375 -20.9375 L 19.375 -20.296875 C 19.375 -18.460938 19.09375 -16.503906 18.53125 -14.421875 L 14.859375 -14.421875 L 13.84375 -18.96875 C 12.414062 -19.507812 10.945312 -19.816406 9.4375 -19.890625 C 8.4375 -19.003906 7.691406 -17.835938 7.203125 -16.390625 C 6.722656 -14.941406 6.484375 -13.414062 6.484375 -11.8125 C 6.484375 -9.320312 7.066406 -7.285156 8.234375 -5.703125 C 9.398438 -4.117188 11.078125 -3.347656 13.265625 -3.390625 L 19.03125 -5.21875 Z M 19.984375 -2.4375 "/></g></g></g><g fill="rgb(0%, 0%, 0%)" fill-opacity="1"><g transform="translate(138.468347, 195.749987)"><g><path d="M 27.3125 -1.796875 L 27.28125 0 L 15.40625 0 L 15.203125 -1.09375 C 16.066406 -1.675781 17.03125 -2.207031 18.09375 -2.6875 L 18.09375 -9.609375 L 9.84375 -9.609375 L 9.84375 -2.3125 L 12.9375 -1.796875 L 12.890625 0 L 1.015625 0 L 0.8125 -1.09375 C 1.675781 -1.675781 2.640625 -2.207031 3.703125 -2.6875 L 3.703125 -20.265625 L 1.09375 -20.671875 L 1.125 -22.46875 L 12.515625 -22.46875 L 12.71875 -21.375 C 11.90625 -20.789062 10.945312 -20.257812 9.84375 -19.78125 L 9.84375 -12.796875 L 18.09375 -12.796875 L 18.09375 -20.265625 L 15.46875 -20.671875 L 15.515625 -22.46875 L 26.90625 -22.46875 L 27.109375 -21.375 C 26.296875 -20.789062 25.335938 -20.257812 24.234375 -19.78125 L 24.234375 -2.3125 Z M 27.3125 -1.796875 "/></g></g></g><g fill="rgb(0%, 0%, 0%)" fill-opacity="1"><g transform="translate(166.6025, 195.749987)"><g><path d="M 20.125 -7.0625 C 20.164062 -4.84375 20.03125 -2.488281 19.71875 0 L 1.015625 0 L 0.8125 -1.09375 C 1.675781 -1.675781 2.640625 -2.207031 3.703125 -2.6875 L 3.703125 -20.296875 L 1.15625 -20.671875 L 1.1875 -22.46875 L 19.953125 -22.46875 L 19.984375 -21.6875 C 19.984375 -19.601562 19.769531 -17.578125 19.34375 -15.609375 L 15.953125 -15.609375 L 15.34375 -19.078125 L 9.84375 -19.453125 L 9.84375 -12.59375 L 16.9375 -13.171875 L 16.9375 -9.5 L 9.84375 -9.8125 L 9.84375 -3.15625 L 15.546875 -3.59375 L 16.765625 -7.328125 Z M 20.125 -7.0625 "/></g></g></g><g fill="rgb(0%, 0%, 0%)" fill-opacity="1"><g transform="translate(188.424287, 195.749987)"><g><path d="M 12.625 -22.734375 C 15.113281 -22.734375 17.25 -22.191406 19.03125 -21.109375 C 20.820312 -20.023438 22.175781 -18.613281 23.09375 -16.875 C 24.007812 -15.144531 24.46875 -13.332031 24.46875 -11.4375 C 24.46875 -8.113281 23.40625 -5.394531 21.28125 -3.28125 C 19.15625 -1.164062 16.347656 -0.0703125 12.859375 0 L 1.015625 0 L 0.8125 -1.09375 C 1.675781 -1.675781 2.640625 -2.207031 3.703125 -2.6875 L 3.703125 -20.328125 L 1.296875 -20.671875 L 1.328125 -22.46875 C 4.742188 -22.644531 8.507812 -22.734375 12.625 -22.734375 Z M 12.109375 -3.125 C 13.898438 -3.125 15.335938 -3.875 16.421875 -5.375 C 17.515625 -6.882812 18.0625 -8.800781 18.0625 -11.125 C 18.0625 -12.914062 17.703125 -14.613281 16.984375 -16.21875 C 16.273438 -17.820312 15.320312 -19.007812 14.125 -19.78125 L 9.84375 -19.28125 L 9.84375 -3.46875 C 10.613281 -3.238281 11.367188 -3.125 12.109375 -3.125 Z M 12.109375 -3.125 "/></g></g></g><g fill="rgb(0%, 0%, 0%)" fill-opacity="1"><g transform="translate(213.266502, 195.749987)"><g><path d="M 25.390625 -21.375 C 24.566406 -20.789062 23.601562 -20.257812 22.5 -19.78125 L 22.5 -9.703125 C 22.476562 -6.035156 21.632812 -3.390625 19.96875 -1.765625 C 18.3125 -0.140625 16.113281 0.671875 13.375 0.671875 C 10.1875 0.671875 7.65625 -0.25 5.78125 -2.09375 C 3.914062 -3.9375 2.9375 -6.472656 2.84375 -9.703125 L 2.84375 -20.265625 L 0.234375 -20.671875 L 0.265625 -22.46875 L 11.671875 -22.46875 L 11.875 -21.375 C 11.0625 -20.789062 10.101562 -20.257812 9 -19.78125 L 9 -8.859375 C 9 -6.796875 9.445312 -5.253906 10.34375 -4.234375 C 11.25 -3.222656 12.460938 -2.71875 13.984375 -2.71875 C 15.085938 -2.71875 16.023438 -3 16.796875 -3.5625 C 17.742188 -4.601562 18.234375 -6.628906 18.265625 -9.640625 L 18.265625 -20.234375 L 15.4375 -20.671875 L 15.46875 -22.46875 L 25.1875 -22.46875 Z M 25.390625 -21.375 "/></g></g></g><g fill="rgb(0%, 0%, 0%)" fill-opacity="1"><g transform="translate(238.889284, 195.749987)"><g><path d="M 20.90625 -7.09375 C 20.90625 -4.125 20.75 -1.757812 20.4375 0 L 1.015625 0 L 0.8125 -1.09375 C 1.675781 -1.675781 2.640625 -2.207031 3.703125 -2.6875 L 3.703125 -20.265625 L 1.09375 -20.671875 L 1.125 -22.46875 L 12.515625 -22.46875 L 12.71875 -21.375 C 11.90625 -20.789062 10.945312 -20.257812 9.84375 -19.78125 L 9.84375 -3.15625 L 15.875 -3.734375 L 17.40625 -8.65625 L 20.90625 -8.34375 Z M 20.90625 -7.09375 "/></g></g></g><g fill="rgb(0%, 0%, 0%)" fill-opacity="1"><g transform="translate(259.896573, 195.749987)"><g><path d="M 20.125 -7.0625 C 20.164062 -4.84375 20.03125 -2.488281 19.71875 0 L 1.015625 0 L 0.8125 -1.09375 C 1.675781 -1.675781 2.640625 -2.207031 3.703125 -2.6875 L 3.703125 -20.296875 L 1.15625 -20.671875 L 1.1875 -22.46875 L 19.953125 -22.46875 L 19.984375 -21.6875 C 19.984375 -19.601562 19.769531 -17.578125 19.34375 -15.609375 L 15.953125 -15.609375 L 15.34375 -19.078125 L 9.84375 -19.453125 L 9.84375 -12.59375 L 16.9375 -13.171875 L 16.9375 -9.5 L 9.84375 -9.8125 L 9.84375 -3.15625 L 15.546875 -3.59375 L 16.765625 -7.328125 Z M 20.125 -7.0625 "/></g></g></g><g fill="rgb(0%, 0%, 0%)" fill-opacity="1"><g transform="translate(281.71836, 195.749987)"><g><path d="M 24.671875 -1.796875 L 24.640625 0 L 13.578125 0 L 13.375 -1.09375 C 13.9375 -1.5 14.582031 -1.867188 15.3125 -2.203125 L 11.171875 -8.3125 L 7.1875 -2.234375 L 9.875 -1.796875 L 9.84375 0 L 0.140625 0 L -0.0625 -1.09375 C 0.769531 -1.65625 1.738281 -2.1875 2.84375 -2.6875 L 9 -11.5 L 3.015625 -20.328125 L 0.8125 -20.671875 L 0.84375 -22.46875 L 11.328125 -22.46875 L 11.53125 -21.375 L 9.8125 -20.359375 L 13.546875 -14.859375 L 16.90625 -20.265625 L 14.328125 -20.671875 L 14.359375 -22.46875 L 23.390625 -22.46875 L 23.59375 -21.375 C 22.84375 -20.851562 21.898438 -20.332031 20.765625 -19.8125 L 15.578125 -11.90625 L 22.1875 -2.171875 Z M 24.671875 -1.796875 "/></g></g></g><g fill="rgb(0%, 0%, 0%)" fill-opacity="1"><g transform="translate(305.911608, 195.749987)"><g/></g></g></svg>