<svg xmlns="http://www.w3.org/2000/svg" xmlns:xlink="http://www.w3.org/1999/xlink" width="500" zoomAndPan="magnify" viewBox="0 0 375 374.999991" height="500" preserveAspectRatio="xMidYMid meet" version="1.0"><defs><g><g id="id1"/></g><clipPath id="id2"><path d="M 47.488281 157.25 L 97.738281 157.25 L 97.738281 207.5 L 47.488281 207.5 Z M 47.488281 157.25 " clip-rule="nonzero"/></clipPath></defs><g clip-path="url(#id2)"><path fill="rgb(100%, 100%, 100%)" d="M 97.742188 202.339844 C 97.742188 205.191406 95.429688 207.503906 92.578125 207.503906 L 52.652344 207.503906 C 49.800781 207.503906 47.488281 205.191406 47.488281 202.339844 L 47.488281 162.414062 C 47.488281 159.5625 49.800781 157.253906 52.652344 157.253906 L 92.578125 157.253906 C 95.429688 157.253906 97.742188 159.5625 97.742188 162.414062 L 97.742188 202.339844 " fill-opacity="1" fill-rule="nonzero"/></g><path fill="rgb(99.21875%, 2.349854%, 60.389709%)" d="M 69.769531 193.371094 L 81.246094 193.371094 C 81.667969 193.371094 82.007812 193.027344 82.007812 192.605469 C 82.007812 192.183594 81.667969 191.84375 81.246094 191.84375 L 69.769531 191.84375 C 69.347656 191.84375 69.003906 192.183594 69.003906 192.605469 C 69.003906 193.027344 69.347656 193.371094 69.769531 193.371094 " fill-opacity="1" fill-rule="nonzero"/><path fill="rgb(99.21875%, 2.349854%, 60.389709%)" d="M 64.980469 194.664062 C 64.984375 194.667969 64.988281 194.671875 64.992188 194.675781 C 65.015625 194.699219 65.039062 194.722656 65.066406 194.746094 C 65.082031 194.757812 65.097656 194.769531 65.113281 194.78125 C 65.117188 194.785156 65.121094 194.789062 65.128906 194.792969 C 65.140625 194.804688 65.152344 194.804688 65.164062 194.8125 C 65.207031 194.835938 65.25 194.859375 65.296875 194.875 C 65.316406 194.882812 65.335938 194.890625 65.355469 194.894531 C 65.417969 194.910156 65.480469 194.921875 65.546875 194.921875 C 65.550781 194.921875 65.550781 194.921875 65.550781 194.921875 C 65.609375 194.921875 65.664062 194.914062 65.71875 194.902344 C 65.734375 194.898438 65.75 194.894531 65.765625 194.890625 C 65.808594 194.875 65.847656 194.863281 65.882812 194.84375 C 65.898438 194.835938 65.910156 194.832031 65.925781 194.824219 C 65.972656 194.796875 66.015625 194.765625 66.058594 194.730469 C 66.058594 194.730469 66.058594 194.730469 66.0625 194.726562 C 66.066406 194.722656 66.074219 194.714844 66.078125 194.710938 C 66.113281 194.671875 66.148438 194.636719 66.175781 194.59375 C 66.179688 194.589844 66.183594 194.585938 66.1875 194.582031 L 68.652344 190.875 C 68.886719 190.523438 68.789062 190.046875 68.4375 189.816406 C 68.3125 189.730469 68.167969 189.6875 68.015625 189.6875 C 67.757812 189.6875 67.519531 189.816406 67.378906 190.027344 L 65.464844 192.90625 L 64.558594 191.878906 C 64.414062 191.714844 64.203125 191.621094 63.984375 191.621094 C 63.796875 191.621094 63.617188 191.691406 63.480469 191.8125 C 63.324219 191.949219 63.234375 192.136719 63.222656 192.339844 C 63.210938 192.542969 63.277344 192.738281 63.410156 192.890625 L 64.980469 194.664062 " fill-opacity="1" fill-rule="nonzero"/><path fill="rgb(99.21875%, 2.349854%, 60.389709%)" d="M 69.769531 182.1875 L 81.246094 182.1875 C 81.667969 182.1875 82.007812 181.847656 82.007812 181.425781 C 82.007812 181.003906 81.667969 180.660156 81.246094 180.660156 L 69.769531 180.660156 C 69.347656 180.660156 69.003906 181.003906 69.003906 181.425781 C 69.003906 181.847656 69.347656 182.1875 69.769531 182.1875 " fill-opacity="1" fill-rule="nonzero"/><path fill="rgb(99.21875%, 2.349854%, 60.389709%)" d="M 69.769531 187.78125 L 81.246094 187.78125 C 81.667969 187.78125 82.007812 187.4375 82.007812 187.015625 C 82.007812 186.59375 81.667969 186.253906 81.246094 186.253906 L 69.769531 186.253906 C 69.347656 186.253906 69.003906 186.59375 69.003906 187.015625 C 69.003906 187.4375 69.347656 187.78125 69.769531 187.78125 " fill-opacity="1" fill-rule="nonzero"/><path fill="rgb(99.21875%, 2.349854%, 60.389709%)" d="M 64.980469 182.976562 C 64.984375 182.984375 64.988281 182.984375 64.992188 182.988281 C 65.015625 183.015625 65.039062 183.039062 65.066406 183.058594 C 65.082031 183.070312 65.097656 183.085938 65.113281 183.09375 C 65.117188 183.101562 65.121094 183.105469 65.128906 183.109375 C 65.140625 183.117188 65.152344 183.121094 65.164062 183.125 C 65.207031 183.152344 65.25 183.171875 65.296875 183.191406 C 65.316406 183.195312 65.335938 183.203125 65.355469 183.210938 C 65.417969 183.226562 65.480469 183.238281 65.546875 183.238281 C 65.550781 183.238281 65.550781 183.238281 65.550781 183.238281 C 65.609375 183.238281 65.664062 183.226562 65.71875 183.214844 C 65.734375 183.210938 65.75 183.207031 65.765625 183.203125 C 65.808594 183.191406 65.847656 183.175781 65.882812 183.15625 C 65.898438 183.152344 65.910156 183.144531 65.925781 183.136719 C 65.972656 183.113281 66.015625 183.082031 66.058594 183.046875 C 66.058594 183.042969 66.058594 183.042969 66.0625 183.042969 C 66.066406 183.035156 66.074219 183.03125 66.078125 183.023438 C 66.113281 182.988281 66.148438 182.949219 66.175781 182.910156 C 66.179688 182.90625 66.183594 182.902344 66.1875 182.898438 L 68.652344 179.1875 C 68.886719 178.839844 68.789062 178.363281 68.4375 178.128906 C 68.3125 178.046875 68.167969 178 68.015625 178 C 67.757812 178 67.519531 178.128906 67.378906 178.34375 L 65.464844 181.222656 L 64.558594 180.195312 C 64.414062 180.03125 64.203125 179.9375 63.984375 179.9375 C 63.796875 179.9375 63.617188 180.003906 63.480469 180.128906 C 63.324219 180.261719 63.234375 180.449219 63.222656 180.652344 C 63.210938 180.859375 63.277344 181.054688 63.410156 181.207031 L 64.980469 182.976562 " fill-opacity="1" fill-rule="nonzero"/><path fill="rgb(99.21875%, 2.349854%, 60.389709%)" d="M 68.4375 184.210938 C 68.3125 184.128906 68.167969 184.082031 68.015625 184.082031 C 67.757812 184.082031 67.519531 184.210938 67.378906 184.421875 L 65.464844 187.304688 L 64.554688 186.273438 C 64.410156 186.109375 64.203125 186.015625 63.984375 186.015625 C 63.796875 186.015625 63.617188 186.085938 63.476562 186.207031 C 63.164062 186.488281 63.132812 186.972656 63.410156 187.289062 L 64.980469 189.058594 C 64.984375 189.0625 64.988281 189.066406 64.992188 189.070312 C 65.015625 189.097656 65.042969 189.121094 65.070312 189.144531 C 65.085938 189.15625 65.097656 189.164062 65.109375 189.175781 C 65.117188 189.179688 65.121094 189.1875 65.128906 189.191406 C 65.140625 189.195312 65.152344 189.199219 65.164062 189.207031 C 65.207031 189.230469 65.25 189.253906 65.296875 189.269531 C 65.316406 189.277344 65.335938 189.285156 65.355469 189.289062 C 65.417969 189.304688 65.480469 189.316406 65.546875 189.316406 C 65.550781 189.316406 65.550781 189.316406 65.550781 189.316406 C 65.609375 189.316406 65.664062 189.308594 65.71875 189.296875 C 65.734375 189.292969 65.75 189.289062 65.765625 189.285156 C 65.808594 189.269531 65.847656 189.257812 65.882812 189.238281 C 65.898438 189.230469 65.910156 189.226562 65.925781 189.21875 C 65.972656 189.191406 66.015625 189.160156 66.058594 189.125 C 66.058594 189.125 66.058594 189.121094 66.0625 189.121094 C 66.066406 189.117188 66.070312 189.109375 66.074219 189.105469 C 66.113281 189.070312 66.148438 189.03125 66.175781 188.988281 C 66.179688 188.984375 66.183594 188.980469 66.1875 188.976562 L 68.652344 185.269531 C 68.765625 185.101562 68.804688 184.898438 68.765625 184.695312 C 68.722656 184.496094 68.609375 184.324219 68.4375 184.210938 " fill-opacity="1" fill-rule="nonzero"/><path fill="rgb(99.21875%, 2.349854%, 60.389709%)" d="M 84.925781 195.171875 C 84.925781 196.414062 84.320312 197.34375 83.78125 197.34375 L 61.449219 197.34375 C 60.910156 197.34375 60.304688 196.414062 60.304688 195.171875 L 60.304688 176.042969 L 84.925781 176.042969 Z M 83.78125 169.648438 L 81.742188 169.648438 L 81.742188 170.324219 L 81.738281 172.988281 C 81.738281 174.089844 80.84375 174.984375 79.746094 174.984375 C 78.644531 174.984375 77.75 174.089844 77.75 172.988281 L 77.75 169.648438 L 67.476562 169.648438 L 67.476562 172.949219 C 67.476562 174.046875 66.582031 174.941406 65.480469 174.941406 C 64.382812 174.941406 63.488281 174.046875 63.488281 172.949219 L 63.488281 169.648438 L 61.449219 169.648438 C 59.816406 169.648438 58.535156 171.378906 58.535156 173.589844 L 58.535156 195.171875 C 58.535156 197.378906 59.816406 199.109375 61.449219 199.109375 L 83.78125 199.109375 C 85.414062 199.109375 86.691406 197.378906 86.691406 195.171875 L 86.691406 173.589844 C 86.691406 171.378906 85.414062 169.648438 83.78125 169.648438 " fill-opacity="1" fill-rule="nonzero"/><path fill="rgb(99.21875%, 2.349854%, 60.389709%)" d="M 65.480469 166.753906 C 64.996094 166.753906 64.597656 167.152344 64.597656 167.636719 L 64.597656 172.949219 C 64.597656 173.433594 64.996094 173.832031 65.480469 173.832031 C 65.96875 173.832031 66.367188 173.433594 66.367188 172.949219 L 66.367188 167.636719 C 66.367188 167.152344 65.96875 166.753906 65.480469 166.753906 " fill-opacity="1" fill-rule="nonzero"/><path fill="rgb(99.21875%, 2.349854%, 60.389709%)" d="M 79.746094 166.753906 C 79.261719 166.753906 78.863281 167.152344 78.863281 167.636719 L 78.863281 169.773438 C 78.863281 169.773438 78.859375 169.773438 78.859375 169.769531 L 78.859375 172.988281 C 78.859375 173.476562 79.257812 173.875 79.742188 173.875 C 80.230469 173.875 80.628906 173.476562 80.628906 172.988281 L 80.628906 169.574219 C 80.628906 169.574219 80.628906 169.574219 80.628906 169.570312 L 80.628906 167.636719 C 80.628906 167.152344 80.234375 166.753906 79.746094 166.753906 " fill-opacity="1" fill-rule="nonzero"/><g fill="rgb(0%, 0%, 0%)" fill-opacity="1"><g transform="translate(97.845212, 195.749987)"><g><path d="M 19.140625 -6.3125 C 19.140625 -4.226562 18.316406 -2.546875 16.671875 -1.265625 C 15.035156 0.00390625 12.90625 0.640625 10.28125 0.640625 C 8.90625 0.640625 7.414062 0.457031 5.8125 0.09375 C 4.21875 -0.257812 2.867188 -0.765625 1.765625 -1.421875 L 1.796875 -1.5 L 1.765625 -2.515625 C 1.765625 -4.640625 1.96875 -6.457031 2.375 -7.96875 L 5.125 -7.96875 L 7.328125 -3.046875 C 8.617188 -2.597656 9.929688 -2.351562 11.265625 -2.3125 C 12.484375 -2.875 13.09375 -3.71875 13.09375 -4.84375 C 13.09375 -5.976562 12.328125 -6.953125 10.796875 -7.765625 L 6.65625 -9.78125 L 5.328125 -10.515625 C 2.929688 -11.960938 1.734375 -13.851562 1.734375 -16.1875 C 1.734375 -18.25 2.582031 -19.921875 4.28125 -21.203125 C 5.976562 -22.492188 8.171875 -23.140625 10.859375 -23.140625 C 13.390625 -23.140625 15.8125 -22.710938 18.125 -21.859375 C 18.03125 -19.117188 17.789062 -16.957031 17.40625 -15.375 L 14.28125 -15.375 L 12.96875 -19.515625 C 11.832031 -19.960938 10.519531 -20.210938 9.03125 -20.265625 C 8.007812 -19.648438 7.5 -18.800781 7.5 -17.71875 C 7.5 -16.96875 7.851562 -16.335938 8.5625 -15.828125 C 9.28125 -15.316406 10.445312 -14.707031 12.0625 -14 C 13.675781 -13.289062 14.960938 -12.617188 15.921875 -11.984375 C 16.890625 -11.347656 17.664062 -10.570312 18.25 -9.65625 C 18.84375 -8.738281 19.140625 -7.625 19.140625 -6.3125 Z M 19.140625 -6.3125 "/></g></g></g><g fill="rgb(0%, 0%, 0%)" fill-opacity="1"><g transform="translate(118.207683, 195.749987)"><g><path d="M 19.984375 -2.4375 L 12.859375 0.578125 C 9.898438 0.691406 7.476562 0.195312 5.59375 -0.90625 C 3.71875 -2.019531 2.367188 -3.46875 1.546875 -5.25 C 0.722656 -7.039062 0.3125 -8.929688 0.3125 -10.921875 C 0.3125 -13.054688 0.753906 -15.050781 1.640625 -16.90625 C 2.535156 -18.757812 3.875 -20.257812 5.65625 -21.40625 C 7.445312 -22.5625 9.625 -23.140625 12.1875 -23.140625 C 14.925781 -23.140625 17.3125 -22.40625 19.34375 -20.9375 L 19.375 -20.296875 C 19.375 -18.460938 19.09375 -16.503906 18.53125 -14.421875 L 14.859375 -14.421875 L 13.84375 -18.96875 C 12.414062 -19.507812 10.945312 -19.816406 9.4375 -19.890625 C 8.4375 -19.003906 7.691406 -17.835938 7.203125 -16.390625 C 6.722656 -14.941406 6.484375 -13.414062 6.484375 -11.8125 C 6.484375 -9.320312 7.066406 -7.285156 8.234375 -5.703125 C 9.398438 -4.117188 11.078125 -3.347656 13.265625 -3.390625 L 19.03125 -5.21875 Z M 19.984375 -2.4375 "/></g></g></g><g fill="rgb(0%, 0%, 0%)" fill-opacity="1"><g transform="translate(138.468347, 195.749987)"><g><path d="M 27.3125 -1.796875 L 27.28125 0 L 15.40625 0 L 15.203125 -1.09375 C 16.066406 -1.675781 17.03125 -2.207031 18.09375 -2.6875 L 18.09375 -9.609375 L 9.84375 -9.609375 L 9.84375 -2.3125 L 12.9375 -1.796875 L 12.890625 0 L 1.015625 0 L 0.8125 -1.09375 C 1.675781 -1.675781 2.640625 -2.207031 3.703125 -2.6875 L 3.703125 -20.265625 L 1.09375 -20.671875 L 1.125 -22.46875 L 12.515625 -22.46875 L 12.71875 -21.375 C 11.90625 -20.789062 10.945312 -20.257812 9.84375 -19.78125 L 9.84375 -12.796875 L 18.09375 -12.796875 L 18.09375 -20.265625 L 15.46875 -20.671875 L 15.515625 -22.46875 L 26.90625 -22.46875 L 27.109375 -21.375 C 26.296875 -20.789062 25.335938 -20.257812 24.234375 -19.78125 L 24.234375 -2.3125 Z M 27.3125 -1.796875 "/></g></g></g><g fill="rgb(0%, 0%, 0%)" fill-opacity="1"><g transform="translate(166.6025, 195.749987)"><g><path d="M 20.125 -7.0625 C 20.164062 -4.84375 20.03125 -2.488281 19.71875 0 L 1.015625 0 L 0.8125 -1.09375 C 1.675781 -1.675781 2.640625 -2.207031 3.703125 -2.6875 L 3.703125 -20.296875 L 1.15625 -20.671875 L 1.1875 -22.46875 L 19.953125 -22.46875 L 19.984375 -21.6875 C 19.984375 -19.601562 19.769531 -17.578125 19.34375 -15.609375 L 15.953125 -15.609375 L 15.34375 -19.078125 L 9.84375 -19.453125 L 9.84375 -12.59375 L 16.9375 -13.171875 L 16.9375 -9.5 L 9.84375 -9.8125 L 9.84375 -3.15625 L 15.546875 -3.59375 L 16.765625 -7.328125 Z M 20.125 -7.0625 "/></g></g></g><g fill="rgb(0%, 0%, 0%)" fill-opacity="1"><g transform="translate(188.424287, 195.749987)"><g><path d="M 12.625 -22.734375 C 15.113281 -22.734375 17.25 -22.191406 19.03125 -21.109375 C 20.820312 -20.023438 22.175781 -18.613281 23.09375 -16.875 C 24.007812 -15.144531 24.46875 -13.332031 24.46875 -11.4375 C 24.46875 -8.113281 23.40625 -5.394531 21.28125 -3.28125 C 19.15625 -1.164062 16.347656 -0.0703125 12.859375 0 L 1.015625 0 L 0.8125 -1.09375 C 1.675781 -1.675781 2.640625 -2.207031 3.703125 -2.6875 L 3.703125 -20.328125 L 1.296875 -20.671875 L 1.328125 -22.46875 C 4.742188 -22.644531 8.507812 -22.734375 12.625 -22.734375 Z M 12.109375 -3.125 C 13.898438 -3.125 15.335938 -3.875 16.421875 -5.375 C 17.515625 -6.882812 18.0625 -8.800781 18.0625 -11.125 C 18.0625 -12.914062 17.703125 -14.613281 16.984375 -16.21875 C 16.273438 -17.820312 15.320312 -19.007812 14.125 -19.78125 L 9.84375 -19.28125 L 9.84375 -3.46875 C 10.613281 -3.238281 11.367188 -3.125 12.109375 -3.125 Z M 12.109375 -3.125 "/></g></g></g><g fill="rgb(0%, 0%, 0%)" fill-opacity="1"><g transform="translate(213.266502, 195.749987)"><g><path d="M 25.390625 -21.375 C 24.566406 -20.789062 23.601562 -20.257812 22.5 -19.78125 L 22.5 -9.703125 C 22.476562 -6.035156 21.632812 -3.390625 19.96875 -1.765625 C 18.3125 -0.140625 16.113281 0.671875 13.375 0.671875 C 10.1875 0.671875 7.65625 -0.25 5.78125 -2.09375 C 3.914062 -3.9375 2.9375 -6.472656 2.84375 -9.703125 L 2.84375 -20.265625 L 0.234375 -20.671875 L 0.265625 -22.46875 L 11.671875 -22.46875 L 11.875 -21.375 C 11.0625 -20.789062 10.101562 -20.257812 9 -19.78125 L 9 -8.859375 C 9 -6.796875 9.445312 -5.253906 10.34375 -4.234375 C 11.25 -3.222656 12.460938 -2.71875 13.984375 -2.71875 C 15.085938 -2.71875 16.023438 -3 16.796875 -3.5625 C 17.742188 -4.601562 18.234375 -6.628906 18.265625 -9.640625 L 18.265625 -20.234375 L 15.4375 -20.671875 L 15.46875 -22.46875 L 25.1875 -22.46875 Z M 25.390625 -21.375 "/></g></g></g><g fill="rgb(0%, 0%, 0%)" fill-opacity="1"><g transform="translate(238.889284, 195.749987)"><g><path d="M 20.90625 -7.09375 C 20.90625 -4.125 20.75 -1.757812 20.4375 0 L 1.015625 0 L 0.8125 -1.09375 C 1.675781 -1.675781 2.640625 -2.207031 3.703125 -2.6875 L 3.703125 -20.265625 L 1.09375 -20.671875 L 1.125 -22.46875 L 12.515625 -22.46875 L 12.71875 -21.375 C 11.90625 -20.789062 10.945312 -20.257812 9.84375 -19.78125 L 9.84375 -3.15625 L 15.875 -3.734375 L 17.40625 -8.65625 L 20.90625 -8.34375 Z M 20.90625 -7.09375 "/></g></g></g><g fill="rgb(0%, 0%, 0%)" fill-opacity="1"><g transform="translate(259.896573, 195.749987)"><g><path d="M 20.125 -7.0625 C 20.164062 -4.84375 20.03125 -2.488281 19.71875 0 L 1.015625 0 L 0.8125 -1.09375 C 1.675781 -1.675781 2.640625 -2.207031 3.703125 -2.6875 L 3.703125 -20.296875 L 1.15625 -20.671875 L 1.1875 -22.46875 L 19.953125 -22.46875 L 19.984375 -21.6875 C 19.984375 -19.601562 19.769531 -17.578125 19.34375 -15.609375 L 15.953125 -15.609375 L 15.34375 -19.078125 L 9.84375 -19.453125 L 9.84375 -12.59375 L 16.9375 -13.171875 L 16.9375 -9.5 L 9.84375 -9.8125 L 9.84375 -3.15625 L 15.546875 -3.59375 L 16.765625 -7.328125 Z M 20.125 -7.0625 "/></g></g></g><g fill="rgb(0%, 0%, 0%)" fill-opacity="1"><g transform="translate(281.71836, 195.749987)"><g><path d="M 1.125 -10.59375 L 1.828125 -12.015625 L 12.15625 -12.015625 L 14.046875 -8.953125 L 13.34375 -7.53125 L 3.015625 -7.53125 Z M 1.125 -10.59375 "/></g></g></g><g fill="rgb(0%, 0%, 0%)" fill-opacity="1"><g transform="translate(297.431395, 195.749987)"><g><path d="M 24.671875 -1.796875 L 24.640625 0 L 13.578125 0 L 13.375 -1.09375 C 13.9375 -1.5 14.582031 -1.867188 15.3125 -2.203125 L 11.171875 -8.3125 L 7.1875 -2.234375 L 9.875 -1.796875 L 9.84375 0 L 0.140625 0 L -0.0625 -1.09375 C 0.769531 -1.65625 1.738281 -2.1875 2.84375 -2.6875 L 9 -11.5 L 3.015625 -20.328125 L 0.8125 -20.671875 L 0.84375 -22.46875 L 11.328125 -22.46875 L 11.53125 -21.375 L 9.8125 -20.359375 L 13.546875 -14.859375 L 16.90625 -20.265625 L 14.328125 -20.671875 L 14.359375 -22.46875 L 23.390625 -22.46875 L 23.59375 -21.375 C 22.84375 -20.851562 21.898438 -20.332031 20.765625 -19.8125 L 15.578125 -11.90625 L 22.1875 -2.171875 Z M 24.671875 -1.796875 "/></g></g></g><g fill="rgb(0%, 0%, 0%)" fill-opacity="1"><g transform="translate(321.626447, 195.749987)"><g/></g></g></svg>